<?xml version="1.0" encoding="UTF-8" standalone="no"?>
<svg
   xmlns:dc="http://purl.org/dc/elements/1.1/"
   xmlns:cc="http://creativecommons.org/ns#"
   xmlns:rdf="http://www.w3.org/1999/02/22-rdf-syntax-ns#"
   xmlns:svg="http://www.w3.org/2000/svg"
   xmlns="http://www.w3.org/2000/svg"
   xmlns:sodipodi="http://sodipodi.sourceforge.net/DTD/sodipodi-0.dtd"
   xmlns:inkscape="http://www.inkscape.org/namespaces/inkscape"
   inkscape:version="1.0 (4035a4fb49, 2020-05-01)"
   sodipodi:docname="ergo81_switch_separado2L.svg"
   id="svg166"
   version="1.1"
   viewBox="0.000 0.000 375.242 158.877"
   height="158.877mm"
   width="375.242mm">
  <metadata
     id="metadata172">
    <rdf:RDF>
      <cc:Work
         rdf:about="">
        <dc:format>image/svg+xml</dc:format>
        <dc:type
           rdf:resource="http://purl.org/dc/dcmitype/StillImage" />
        <dc:title />
      </cc:Work>
    </rdf:RDF>
  </metadata>
  <defs
     id="defs170" />
  <sodipodi:namedview
     inkscape:current-layer="svg166"
     inkscape:window-maximized="1"
     inkscape:window-y="-8"
     inkscape:window-x="-8"
     inkscape:cy="285.98846"
     inkscape:cx="731.55617"
     inkscape:zoom="0.5080544"
     showgrid="false"
     id="namedview168"
     inkscape:window-height="705"
     inkscape:window-width="1366"
     inkscape:pageshadow="2"
     inkscape:pageopacity="0"
     guidetolerance="10"
     gridtolerance="10"
     objecttolerance="10"
     borderopacity="1"
     bordercolor="#666666"
     pagecolor="#ffffff"
     inkscape:document-rotation="0" />
  <path
     id="path2282"
     style="fill:none;stroke:#000000;stroke-width:0.0493974mm"
     d="M 152.73538,5.0007284 31.751034,5.0002117 31.367595,5.0162311 30.986738,5.0622231 30.61105,5.1392211 30.242081,5.2451579 29.88293,5.3810669 29.535665,5.544881 29.2008,5.7371175 28.882475,5.9551918 28.581201,6.1980711 28.300082,6.4652384 28.039115,6.7530762 27.801919,7.0621011 27.58953,7.3881794 l -0.187584,0.3426148 -0.160198,0.3560506 -0.13281,0.3679361 -0.103351,0.3782717 -0.07493,0.3849893 -0.04496,0.390157 -0.01447,0.3927411 -15.876034,114.00544 0.0155,0.39171 0.04496,0.39016 0.07493,0.38499 0.103353,0.37775 0.132809,0.36794 0.160197,0.35605 0.187585,0.34313 0.21239,0.32608 0.237195,0.30902 0.260966,0.28784 0.28112,0.26717 0.301273,0.24288 0.318327,0.21807 0.334864,0.19224 0.347265,0.16381 0.359151,0.13591 0.36897,0.10594 0.375688,0.077 0.380855,0.046 0.383439,0.016 136.85935,23.6771 z" />
  <polygon
     id="polygon10"
     style="fill:none;stroke:#000000;stroke-width:0.05mm"
     points="115.91,135.691 118.341,121.904 104.554,119.473 102.123,133.26 "
     transform="translate(-5.2916666)" />
  <polygon
     id="polygon12"
     style="fill:none;stroke:#000000;stroke-width:0.05mm"
     points="58.802,130.456 61.233,116.67 47.445,114.239 45.014,128.026 "
     transform="translate(-5.2916666)" />
  <polygon
     id="polygon16"
     style="fill:none;stroke:#000000;stroke-width:0.05mm"
     points="83.079,129.902 85.51,116.115 71.723,113.684 69.292,127.471 "
     transform="translate(-5.2916666)" />
  <polygon
     id="polygon20"
     style="fill:none;stroke:#000000;stroke-width:0.05mm"
     points="35.351,126.322 37.782,112.535 23.995,110.104 21.564,123.891 "
     transform="translate(-5.2916666)" />
  <polygon
     id="polygon24"
     style="fill:none;stroke:#000000;stroke-width:0.05mm"
     points="139.497,125.342 141.928,111.555 128.14,109.124 125.71,122.911 "
     transform="translate(-5.2916666)" />
  <polygon
     id="polygon34"
     style="fill:none;stroke:#000000;stroke-width:0.05mm"
     points="121.563,117.344 123.995,103.557 110.207,101.126 107.776,114.913 "
     transform="translate(-5.2916666)" />
  <polygon
     id="polygon38"
     style="fill:none;stroke:#000000;stroke-width:0.05mm"
     points="64.454,112.11 66.886,98.323 53.098,95.892 50.667,109.679 "
     transform="translate(-5.2916666)" />
  <polygon
     id="polygon42"
     style="fill:none;stroke:#000000;stroke-width:0.05mm"
     points="84.042,110.728 86.473,96.941 72.686,94.51 70.255,108.297 "
     transform="translate(-5.2916666)" />
  <polygon
     id="polygon46"
     style="fill:none;stroke:#000000;stroke-width:0.05mm"
     points="103.63,109.346 106.061,95.559 92.274,93.128 89.843,106.915 "
     transform="translate(-5.2916666)" />
  <polygon
     id="polygon52"
     style="fill:none;stroke:#000000;stroke-width:0.05mm"
     points="38.659,107.562 41.09,93.775 27.303,91.343 24.872,105.131 "
     transform="translate(-5.2916666)" />
  <polygon
     id="polygon54"
     style="fill:none;stroke:#000000;stroke-width:0.05mm"
     points="142.805,106.582 145.236,92.794 131.449,90.363 129.018,104.151 "
     transform="translate(-5.2916666)" />
  <polygon
     id="polygon60"
     style="fill:none;stroke:#000000;stroke-width:0.05mm"
     points="124.871,98.584 127.303,84.796 113.515,82.365 111.084,96.153 "
     transform="translate(-5.2916666)" />
  <polygon
     id="polygon64"
     style="fill:none;stroke:#000000;stroke-width:0.05mm"
     points="67.763,93.35 70.194,79.562 56.406,77.131 53.975,90.919 "
     transform="translate(-5.2916666)" />
  <polygon
     id="polygon68"
     style="fill:none;stroke:#000000;stroke-width:0.05mm"
     points="87.35,91.968 89.781,78.18 75.994,75.749 73.563,89.537 "
     transform="translate(-5.2916666)" />
  <polygon
     id="polygon72"
     style="fill:none;stroke:#000000;stroke-width:0.05mm"
     points="106.938,90.585 109.369,76.798 95.582,74.367 93.151,88.154 "
     transform="translate(-5.2916666)" />
  <polygon
     id="polygon76"
     style="fill:none;stroke:#000000;stroke-width:0.05mm"
     points="49.002,90.042 51.433,76.254 37.646,73.823 35.215,87.611 "
     transform="translate(-5.2916666)" />
  <polygon
     id="polygon80"
     style="fill:none;stroke:#000000;stroke-width:0.05mm"
     points="146.113,87.821 148.544,74.034 134.757,71.603 132.326,85.39 "
     transform="translate(-5.2916666)" />
  <polygon
     id="polygon90"
     style="fill:none;stroke:#000000;stroke-width:0.05mm"
     points="128.179,79.823 130.611,66.036 116.823,63.605 114.392,77.392 "
     transform="translate(-5.2916666)" />
  <polygon
     id="polygon94"
     style="fill:none;stroke:#000000;stroke-width:0.05mm"
     points="71.071,74.589 73.502,60.802 59.714,58.371 57.283,72.158 "
     transform="translate(-5.2916666)" />
  <polygon
     id="polygon98"
     style="fill:none;stroke:#000000;stroke-width:0.05mm"
     points="90.658,73.207 93.089,59.42 79.302,56.989 76.871,70.776 "
     transform="translate(-5.2916666)" />
  <polygon
     id="polygon102"
     style="fill:none;stroke:#000000;stroke-width:0.05mm"
     points="110.246,71.825 112.677,58.038 98.89,55.606 96.459,69.394 "
     transform="translate(-5.2916666)" />
  <polygon
     id="polygon108"
     style="fill:none;stroke:#000000;stroke-width:0.05mm"
     points="47.62,70.454 50.051,56.667 36.264,54.236 33.833,68.023 "
     transform="translate(-5.2916666)" />
  <polygon
     id="polygon110"
     style="fill:none;stroke:#000000;stroke-width:0.05mm"
     points="149.421,69.061 151.852,55.273 138.065,52.842 135.634,66.629 "
     transform="translate(-5.2916666)" />
  <polygon
     id="polygon120"
     style="fill:none;stroke:#000000;stroke-width:0.05mm"
     points="131.487,61.062 133.919,47.275 120.131,44.844 117.7,58.631 "
     transform="translate(-5.2916666)" />
  <polygon
     id="polygon124"
     style="fill:none;stroke:#000000;stroke-width:0.05mm"
     points="74.379,55.829 76.81,42.041 63.022,39.61 60.591,53.397 "
     transform="translate(-5.2916666)" />
  <polygon
     id="polygon128"
     style="fill:none;stroke:#000000;stroke-width:0.05mm"
     points="93.966,54.446 96.397,40.659 82.61,38.228 80.179,52.015 "
     transform="translate(-5.2916666)" />
  <polygon
     id="polygon132"
     style="fill:none;stroke:#000000;stroke-width:0.05mm"
     points="113.554,53.064 115.985,39.277 102.198,36.846 99.767,50.633 "
     transform="translate(-5.2916666)" />
  <polygon
     id="polygon136"
     style="fill:none;stroke:#000000;stroke-width:0.05mm"
     points="55.618,52.521 58.049,38.733 44.262,36.302 41.831,50.089 "
     transform="translate(-5.2916666)" />
  <polygon
     id="polygon140"
     style="fill:none;stroke:#000000;stroke-width:0.05mm"
     points="152.729,50.3 155.16,36.513 141.373,34.082 138.942,47.869 "
     transform="translate(-5.2916666)" />
  <polygon
     id="polygon144"
     style="fill:none;stroke:#000000;stroke-width:0.05mm"
     points="134.795,42.302 137.227,28.515 123.439,26.083 121.008,39.871 "
     transform="translate(-5.2916666)" />
  <polygon
     id="polygon150"
     style="fill:none;stroke:#000000;stroke-width:0.05mm"
     points="77.687,37.068 80.118,23.281 66.33,20.85 63.899,34.637 "
     transform="translate(-5.2916666)" />
  <polygon
     id="polygon154"
     style="fill:none;stroke:#000000;stroke-width:0.05mm"
     points="97.274,35.686 99.705,21.899 85.918,19.467 83.487,33.255 "
     transform="translate(-5.2916666)" />
  <polygon
     id="polygon158"
     style="fill:none;stroke:#000000;stroke-width:0.05mm"
     points="116.862,34.304 119.293,20.516 105.506,18.085 103.075,31.873 "
     transform="translate(-5.2916666)" />
  <polygon
     id="polygon162"
     style="fill:none;stroke:#000000;stroke-width:0.05mm"
     points="58.926,33.76 61.357,19.973 47.57,17.542 45.139,31.329 "
     transform="translate(-5.2916666)" />
</svg>
