<?xml version="1.0" encoding="UTF-8" standalone="no"?>
<svg
   xmlns:dc="http://purl.org/dc/elements/1.1/"
   xmlns:cc="http://creativecommons.org/ns#"
   xmlns:rdf="http://www.w3.org/1999/02/22-rdf-syntax-ns#"
   xmlns:svg="http://www.w3.org/2000/svg"
   xmlns="http://www.w3.org/2000/svg"
   xmlns:sodipodi="http://sodipodi.sourceforge.net/DTD/sodipodi-0.dtd"
   xmlns:inkscape="http://www.inkscape.org/namespaces/inkscape"
   inkscape:version="1.0 (4035a4fb49, 2020-05-01)"
   sodipodi:docname="ergo81_switch_separado2C.svg"
   id="svg166"
   version="1.1"
   viewBox="0.000 0.000 375.242 158.877"
   height="158.877mm"
   width="375.242mm">
  <g
     id="g2146"
     transform="translate(0.52329473)">
    <polygon
       points="202.931,124.538 216.931,124.538 216.931,110.538 202.931,110.538 "
       style="fill:none;stroke:#000000;stroke-width:0.05mm"
       id="polygon28" />
    <polygon
       points="183.881,124.538 197.881,124.538 197.881,110.538 183.881,110.538 "
       style="fill:none;stroke:#000000;stroke-width:0.05mm"
       id="polygon30" />
    <polygon
       points="164.831,124.538 178.831,124.538 178.831,110.538 164.831,110.538 "
       style="fill:none;stroke:#000000;stroke-width:0.05mm"
       id="polygon32" />
    <polygon
       points="183.881,105.488 197.881,105.488 197.881,91.488 183.881,91.488 "
       style="fill:none;stroke:#000000;stroke-width:0.05mm"
       id="polygon58" />
    <path
       id="polygon84"
       style="fill:none;stroke:#000000;stroke-width:0.05mm"
       d="m 202.931,72.438 v 14 h 14.00008 l -8e-5,-14 z"
       sodipodi:nodetypes="ccccc" />
    <polygon
       points="164.831,86.438 178.831,86.438 178.831,72.438 164.831,72.438 "
       style="fill:none;stroke:#000000;stroke-width:0.05mm"
       id="polygon86" />
    <polygon
       points="183.881,81.676 197.881,81.676 197.881,67.676 183.881,67.676 "
       style="fill:none;stroke:#000000;stroke-width:0.05mm"
       id="polygon88" />
    <polygon
       points="202.931,67.388 216.931,67.388 216.931,53.388 202.931,53.388 "
       style="fill:none;stroke:#000000;stroke-width:0.05mm"
       id="polygon114" />
    <polygon
       points="183.881,62.626 197.881,62.626 197.881,48.626 183.881,48.626 "
       style="fill:none;stroke:#000000;stroke-width:0.05mm"
       id="polygon118" />
    <polygon
       id="polygon86-7"
       style="fill:none;stroke:#000000;stroke-width:0.05mm"
       points="164.831,72.438 164.831,86.438 178.831,86.438 178.831,72.438 "
       transform="translate(-0.09467,-19.145031)" />
  </g>
  <metadata
     id="metadata172">
    <rdf:RDF>
      <cc:Work
         rdf:about="">
        <dc:format>image/svg+xml</dc:format>
        <dc:type
           rdf:resource="http://purl.org/dc/dcmitype/StillImage" />
        <dc:title />
      </cc:Work>
    </rdf:RDF>
  </metadata>
  <defs
     id="defs170" />
  <sodipodi:namedview
     inkscape:current-layer="svg166"
     inkscape:window-maximized="1"
     inkscape:window-y="-8"
     inkscape:window-x="-8"
     inkscape:cy="285.98846"
     inkscape:cx="731.55617"
     inkscape:zoom="0.5080544"
     showgrid="false"
     id="namedview168"
     inkscape:window-height="705"
     inkscape:window-width="1366"
     inkscape:pageshadow="2"
     inkscape:pageopacity="0"
     guidetolerance="10"
     gridtolerance="10"
     objecttolerance="10"
     borderopacity="1"
     bordercolor="#666666"
     pagecolor="#ffffff"
     inkscape:document-rotation="0" />
  <path
     id="path2280"
     style="fill:none;stroke:#000000;stroke-width:0.186699mm"
     d="M 597.26758 18.900391 L 597.26758 577.07031 L 623.3418 581.58203 L 819.89648 581.58203 L 849.20898 576.54102 L 849.20898 18.900391 L 597.26758 18.900391 z "
     transform="scale(0.26458333)" />
  <polygon
     id="polygon4"
     style="fill:none;stroke-width:0.050000mm;stroke:black"
     points="184.357,134.351 184.357,139.051 182.832,139.051 182.832,135.821 181.107,135.821 181.107,134.901 177.807,134.901 177.807,135.821 176.082,135.821 176.082,139.051 175.257,139.051 175.257,141.851 176.082,141.851 176.082,148.121 177.807,148.121 177.807,149.101 181.107,149.101 181.107,148.121 182.832,148.121 182.832,143.651 184.357,143.651 184.357,148.351 198.357,148.351 198.357,143.651 199.882,143.651 199.882,148.121 201.607,148.121 201.607,149.101 204.907,149.101 204.907,148.121 206.632,148.121 206.632,141.851 207.457,141.851 207.457,139.051 206.632,139.051 206.632,135.821 204.907,135.821 204.907,134.901 201.607,134.901 201.607,135.821 199.882,135.821 199.882,139.051 198.357,139.051 198.357,134.351" />
  <polygon
     id="polygon148"
     style="fill:none;stroke-width:0.050000mm;stroke:black"
     points="184.357,24.813 184.357,29.513 182.832,29.513 182.832,26.283 181.107,26.283 181.107,25.363 177.807,25.363 177.807,26.283 176.082,26.283 176.082,29.513 175.257,29.513 175.257,32.312 176.082,32.312 176.082,38.583 177.807,38.583 177.807,39.563 181.107,39.563 181.107,38.583 182.832,38.583 182.832,34.113 184.357,34.113 184.357,38.813 198.357,38.813 198.357,34.113 199.882,34.113 199.882,38.583 201.607,38.583 201.607,39.563 204.907,39.563 204.907,38.583 206.632,38.583 206.632,32.312 207.457,32.312 207.457,29.513 206.632,29.513 206.632,26.283 204.907,26.283 204.907,25.363 201.607,25.363 201.607,26.283 199.882,26.283 199.882,29.513 198.357,29.513 198.357,24.813" />
</svg>
