<?xml version="1.0" encoding="UTF-8" standalone="no"?>
<svg
   xmlns:dc="http://purl.org/dc/elements/1.1/"
   xmlns:cc="http://creativecommons.org/ns#"
   xmlns:rdf="http://www.w3.org/1999/02/22-rdf-syntax-ns#"
   xmlns:svg="http://www.w3.org/2000/svg"
   xmlns="http://www.w3.org/2000/svg"
   xmlns:sodipodi="http://sodipodi.sourceforge.net/DTD/sodipodi-0.dtd"
   xmlns:inkscape="http://www.inkscape.org/namespaces/inkscape"
   width="375.242mm"
   height="158.877mm"
   viewBox="0.000 0.000 375.242 158.877"
   version="1.1"
   id="svg166"
   sodipodi:docname="ergo81_switch_separado2R.svg"
   inkscape:version="1.0 (4035a4fb49, 2020-05-01)">
  <metadata
     id="metadata172">
    <rdf:RDF>
      <cc:Work
         rdf:about="">
        <dc:format>image/svg+xml</dc:format>
        <dc:type
           rdf:resource="http://purl.org/dc/dcmitype/StillImage" />
        <dc:title></dc:title>
      </cc:Work>
    </rdf:RDF>
  </metadata>
  <defs
     id="defs170" />
  <sodipodi:namedview
     inkscape:document-rotation="0"
     pagecolor="#ffffff"
     bordercolor="#666666"
     borderopacity="1"
     objecttolerance="10"
     gridtolerance="10"
     guidetolerance="10"
     inkscape:pageopacity="0"
     inkscape:pageshadow="2"
     inkscape:window-width="1366"
     inkscape:window-height="705"
     id="namedview168"
     showgrid="false"
     inkscape:zoom="0.5080544"
     inkscape:cx="731.55617"
     inkscape:cy="344.74415"
     inkscape:window-x="-8"
     inkscape:window-y="-8"
     inkscape:window-maximized="1"
     inkscape:current-layer="svg166" />
  <path
     d="m 229.97821,152.54314 136.86039,-23.53706 0.3829,-0.016 0.38034,-0.046 0.37621,-0.077 0.36846,-0.10594 0.35967,-0.13591 0.3483,-0.16381 0.33383,-0.19224 0.31885,-0.21807 0.30075,-0.24288 0.28112,-0.26717 0.26045,-0.28784 0.23718,-0.30902 0.21291,-0.32608 0.18759,-0.34313 0.1602,-0.35605 0.13229,-0.36794 0.10438,-0.37775 0.0744,-0.38499 0.045,-0.39016 0.0155,-0.39171 -15.875,-114.00544 -0.0155,-0.3927411 -0.045,-0.390157 -0.0744,-0.3849893 -0.10438,-0.3782717 -0.13229,-0.3679361 -0.1602,-0.3560506 -0.18759,-0.3426148 -0.21291,-0.3260783 -0.23718,-0.3090249 -0.26045,-0.2878378 -0.28112,-0.2671673 -0.30075,-0.2428793 -0.31885,-0.2180743 -0.33383,-0.1922365 -0.3483,-0.1638141 -0.35967,-0.135909 -0.36846,-0.1059368 -0.37621,-0.076998 -0.38034,-0.045992 -0.3829,-0.014986 -120.98539,-5.167e-4 z"
     style="fill:none;stroke:#000000;stroke-width:0.0493974mm"
     id="polygon2" />
  <polygon
     transform="translate(5.2916666)"
     points="247.345,144.099 261.131,141.668 258.701,127.881 244.914,130.312 "
     style="fill:none;stroke:#000000;stroke-width:0.05mm"
     id="polygon6" />
  <polygon
     transform="translate(5.2916666)"
     points="265.279,136.101 279.066,133.67 276.635,119.882 262.847,122.313 "
     style="fill:none;stroke:#000000;stroke-width:0.05mm"
     id="polygon8" />
  <polygon
     transform="translate(5.2916666)"
     points="324.732,130.453 338.52,128.021 336.089,114.235 322.301,116.666 "
     style="fill:none;stroke:#000000;stroke-width:0.05mm"
     id="polygon14" />
  <polygon
     transform="translate(5.2916666)"
     points="300.455,129.896 314.242,127.467 311.811,113.68 298.024,116.111 "
     style="fill:none;stroke:#000000;stroke-width:0.05mm"
     id="polygon18" />
  <polygon
     transform="translate(5.2916666)"
     points="348.183,126.318 361.97,123.887 359.539,110.1 345.752,112.531 "
     style="fill:none;stroke:#000000;stroke-width:0.05mm"
     id="polygon22" />
  <polygon
     transform="translate(5.2916666)"
     points="244.037,125.338 257.823,122.907 255.393,109.12 241.606,111.551 "
     style="fill:none;stroke:#000000;stroke-width:0.05mm"
     id="polygon26" />
  <polygon
     transform="translate(5.2916666)"
     points="261.971,117.34 275.758,114.909 273.327,101.122 259.539,103.553 "
     style="fill:none;stroke:#000000;stroke-width:0.05mm"
     id="polygon36" />
  <polygon
     transform="translate(5.2916666)"
     points="319.079,112.106 332.867,109.675 330.436,95.888 316.648,98.319 "
     style="fill:none;stroke:#000000;stroke-width:0.05mm"
     id="polygon40" />
  <polygon
     transform="translate(5.2916666)"
     points="299.492,110.724 313.279,108.293 310.848,94.506 297.061,96.937 "
     style="fill:none;stroke:#000000;stroke-width:0.05mm"
     id="polygon44" />
  <polygon
     transform="translate(5.2916666)"
     points="279.904,109.342 293.691,106.911 291.26,93.124 277.473,95.555 "
     style="fill:none;stroke:#000000;stroke-width:0.05mm"
     id="polygon48" />
  <polygon
     transform="translate(5.2916666)"
     points="337.84,108.798 351.627,106.367 349.196,92.58 335.409,95.011 "
     style="fill:none;stroke:#000000;stroke-width:0.05mm"
     id="polygon50" />
  <polygon
     transform="translate(5.2916666)"
     points="240.729,106.578 254.516,104.147 252.085,90.359 238.298,92.79 "
     style="fill:none;stroke:#000000;stroke-width:0.05mm"
     id="polygon56" />
  <polygon
     transform="translate(5.2916666)"
     points="258.662,98.58 272.45,96.149 270.019,82.361 256.231,84.792 "
     style="fill:none;stroke:#000000;stroke-width:0.05mm"
     id="polygon62" />
  <polygon
     transform="translate(5.2916666)"
     points="315.771,93.346 329.559,90.915 327.128,77.127 313.34,79.558 "
     style="fill:none;stroke:#000000;stroke-width:0.05mm"
     id="polygon66" />
  <polygon
     transform="translate(5.2916666)"
     points="296.184,91.964 309.971,89.533 307.54,75.745 293.753,78.176 "
     style="fill:none;stroke:#000000;stroke-width:0.05mm"
     id="polygon70" />
  <polygon
     transform="translate(5.2916666)"
     points="276.596,90.581 290.383,88.15 287.952,74.363 274.165,76.794 "
     style="fill:none;stroke:#000000;stroke-width:0.05mm"
     id="polygon74" />
  <polygon
     transform="translate(5.2916666)"
     points="334.532,90.038 348.319,87.607 345.888,73.819 332.101,76.25 "
     style="fill:none;stroke:#000000;stroke-width:0.05mm"
     id="polygon78" />
  <polygon
     transform="translate(5.2916666)"
     points="237.421,87.817 251.208,85.386 248.777,71.599 234.99,74.03 "
     style="fill:none;stroke:#000000;stroke-width:0.05mm"
     id="polygon82" />
  <polygon
     transform="translate(5.2916666)"
     points="255.355,79.819 269.142,77.388 266.711,63.601 252.923,66.032 "
     style="fill:none;stroke:#000000;stroke-width:0.05mm"
     id="polygon92" />
  <polygon
     transform="translate(5.2916666)"
     points="312.463,74.585 326.251,72.154 323.82,58.367 310.032,60.798 "
     style="fill:none;stroke:#000000;stroke-width:0.05mm"
     id="polygon96" />
  <polygon
     transform="translate(5.2916666)"
     points="292.876,73.203 306.663,70.772 304.232,56.985 290.445,59.416 "
     style="fill:none;stroke:#000000;stroke-width:0.05mm"
     id="polygon100" />
  <polygon
     transform="translate(5.2916666)"
     points="273.288,71.821 287.075,69.39 284.644,55.602 270.857,58.034 "
     style="fill:none;stroke:#000000;stroke-width:0.05mm"
     id="polygon104" />
  <polygon
     transform="translate(5.2916666)"
     points="333.569,70.864 347.356,68.433 344.925,54.645 331.138,57.076 "
     style="fill:none;stroke:#000000;stroke-width:0.05mm"
     id="polygon106" />
  <polygon
     transform="translate(5.2916666)"
     points="234.113,69.057 247.9,66.625 245.469,52.838 231.682,55.269 "
     style="fill:none;stroke:#000000;stroke-width:0.05mm"
     id="polygon112" />
  <polygon
     transform="translate(5.2916666)"
     points="252.047,61.058 265.834,58.627 263.403,44.84 249.615,47.271 "
     style="fill:none;stroke:#000000;stroke-width:0.05mm"
     id="polygon122" />
  <polygon
     transform="translate(5.2916666)"
     points="309.155,55.825 322.943,53.394 320.512,39.606 306.724,42.037 "
     style="fill:none;stroke:#000000;stroke-width:0.05mm"
     id="polygon126" />
  <polygon
     transform="translate(5.2916666)"
     points="289.568,54.442 303.355,52.011 300.924,38.224 287.137,40.655 "
     style="fill:none;stroke:#000000;stroke-width:0.05mm"
     id="polygon130" />
  <polygon
     transform="translate(5.2916666)"
     points="269.98,53.06 283.767,50.629 281.336,36.842 267.549,39.273 "
     style="fill:none;stroke:#000000;stroke-width:0.05mm"
     id="polygon134" />
  <polygon
     transform="translate(5.2916666)"
     points="327.916,52.517 341.703,50.086 339.272,36.298 325.485,38.729 "
     style="fill:none;stroke:#000000;stroke-width:0.05mm"
     id="polygon138" />
  <polygon
     transform="translate(5.2916666)"
     points="230.805,50.296 244.592,47.865 242.161,34.078 228.374,36.509 "
     style="fill:none;stroke:#000000;stroke-width:0.05mm"
     id="polygon142" />
  <polygon
     transform="translate(5.2916666)"
     points="248.739,42.298 262.526,39.867 260.095,26.079 246.307,28.511 "
     style="fill:none;stroke:#000000;stroke-width:0.05mm"
     id="polygon146" />
  <polygon
     transform="translate(5.2916666)"
     points="305.847,37.064 319.635,34.633 317.204,20.846 303.416,23.277 "
     style="fill:none;stroke:#000000;stroke-width:0.05mm"
     id="polygon152" />
  <polygon
     transform="translate(5.2916666)"
     points="286.26,35.682 300.047,33.251 297.616,19.463 283.829,21.895 "
     style="fill:none;stroke:#000000;stroke-width:0.05mm"
     id="polygon156" />
  <polygon
     transform="translate(5.2916666)"
     points="266.672,34.3 280.459,31.869 278.028,18.081 264.241,20.512 "
     style="fill:none;stroke:#000000;stroke-width:0.05mm"
     id="polygon160" />
  <polygon
     transform="translate(5.2916666)"
     points="324.608,33.756 338.395,31.325 335.964,17.538 322.177,19.969 "
     style="fill:none;stroke:#000000;stroke-width:0.05mm"
     id="polygon164" />
</svg>
